<?xml version="1.0" encoding="UTF-8"?>
<svg width="51px" height="24px" viewBox="0 0 51 24" version="1.1" xmlns="http://www.w3.org/2000/svg" xmlns:xlink="http://www.w3.org/1999/xlink">
    <!-- Generator: Sketch 46.2 (44496) - http://www.bohemiancoding.com/sketch -->
    <title>Combined Shape</title>
    <desc>Created with Sketch.</desc>
    <defs>
        <linearGradient x1="-51.0967592%" y1="150.65918%" x2="100%" y2="0%" id="linearGradient-1">
            <stop stop-color="#22D3CE" offset="0%"></stop>
            <stop stop-color="#4EBCD1" offset="100%"></stop>
        </linearGradient>
    </defs>
    <g id="Symbols" stroke="none" stroke-width="1" fill="none" fill-rule="evenodd">
        <g id="Footer" transform="translate(-20.000000, -15.000000)" fill-rule="nonzero" fill="url(#linearGradient-1)">
            <g id="Group-2">
                <path d="M22.8824,20.6832 L22.8824,29.8416 C22.8824,31.7748 20.0024,31.6548 20.0024,31.6548 L20.0024,22.572 C20.0024,20.6508 22.8824,20.6832 22.8824,20.6832 Z M49.1504,20.6832 L49.1504,29.8416 C49.1504,31.7748 46.2704,31.6548 46.2704,31.6548 L46.2704,22.572 C46.2704,20.6508 49.1504,20.6832 49.1504,20.6832 Z M23.858,20.8116 C23.858,20.8116 26.3888,20.1144 27.2384,22.0008 L29.4956,27.4164 L31.7552,21.9912 C31.7552,21.9912 32.2736,20.2464 35.1332,20.8116 L29.2436,34.8228 C29.2436,34.8228 28.4948,36.5148 25.9628,35.8596 L28.0676,30.852 L23.858,20.8116 Z M36.1484,20.6832 L45.1556,20.6832 C45.47681,21.9160026 45.2048101,23.2280806 44.42,24.2316 L39.446,29.2716 L43.0208,29.2716 C43.0208,29.2716 45.1016,29.232 45.1556,31.6608 L36.2036,31.6608 C35.9190845,30.2909683 36.2910879,28.866879 37.2092,27.8112 L42.0824,23.0832 L38.3624,23.0832 C38.3624,23.0832 36.3464,23.22 36.1484,20.6832 Z M59.5832,29.7672 L59.5916,29.8488 C58.6074996,30.9966303 57.172336,31.6590135 55.6604,31.6632 C52.7312,31.6632 50.3672,29.2032 50.3672,26.1696 C50.3672,23.136 52.7372,20.676 55.6604,20.676 C57.1684752,20.6801708 58.6003751,21.339195 59.5844,22.482 L59.5844,22.4916 C59.5388,22.5888 58.9844,23.772 57.3044,22.9872 C57.3044,22.9872 54.698,21.7152 53.618,23.766 C53.618,23.766 52.5104,26.0508 53.618,28.4652 C53.618,28.4652 54.5648,30.4956 57.278,29.2956 C57.278,29.2956 58.8116,28.4256 59.5832,29.7888 L59.5832,29.7672 Z M65.4344,20.6832 C68.2592,20.6832 70.55,23.1396 70.55,26.1696 C70.55,29.1996 68.2592,31.656 65.4344,31.656 C62.6096,31.656 60.3188,29.1996 60.3188,26.1696 C60.3188,23.1396 62.6096,20.6832 65.4344,20.6832 Z M21.4388,17.8776 C20.6441727,17.8776 20,17.2334273 20,16.4388 C20,15.6441727 20.6441727,15 21.4388,15 C22.2334273,15 22.8776,15.6441727 22.8776,16.4388 C22.8776,17.2334273 22.2334273,17.8776 21.4388,17.8776 Z M47.6948,17.8776 C46.9001727,17.8776 46.256,17.2334273 46.256,16.4388 C46.256,15.6441727 46.9001727,15 47.6948,15 C48.4894273,15 49.1336,15.6441727 49.1336,16.4388 C49.1336,17.2334273 48.4894273,17.8776 47.6948,17.8776 Z M37.34,37.7868 C36.9428,37.7868 36.656,37.6848 36.4376,37.4676 C36.2072,37.2276 36.086,36.8148 36.086,36.2676 C36.086,34.8216 36.7784,34.518 37.3592,34.518 C37.9196,34.518 38.2628,34.8516 38.3264,35.4564 C38.3336,35.5608 38.3396,35.6628 38.3396,35.772 C38.3413513,35.9030863 38.3280645,36.0339411 38.3,36.162 L38.3,36.1632 C38.15584,36.2444231 37.9973275,36.2969889 37.8332,36.318 C37.5505556,36.3469919 37.2665154,36.3602124 36.9824,36.3576 C36.884,36.3576 36.8048,36.3576 36.71,36.3576 C36.7244,37.1652 37.1432,37.26 37.4588,37.26 C37.7078552,37.26966 37.9553698,37.2168569 38.1788,37.1064 L38.2004,37.0944 L38.2088,37.1184 C38.2299679,37.2058317 38.2432214,37.2949915 38.2484,37.3848 C38.2412,37.5336 38.0384,37.674 37.8548,37.7196 C37.6866496,37.7632559 37.5137224,37.7858291 37.34,37.7868 L37.34,37.7868 Z M39.7088,37.7736 C39.3224,37.7736 38.8688,37.542 38.8688,36.8916 C38.8688,36.0084 39.7268,35.8536 39.9896,35.8272 C40.0510359,35.821635 40.1127173,35.8192318 40.1744,35.82 C40.2394965,35.8191022 40.3045462,35.8239207 40.3688,35.8344 L40.3688,35.4888 C40.3688,35.1816 40.328,35.0532 40.0772,35.0532 C39.8431283,35.0667082 39.6136175,35.123679 39.4004,35.2212 C39.339181,35.2524634 39.2722016,35.2708419 39.2036,35.2752 L39.194,35.2752 L39.188,35.268 C39.1295549,35.1886793 39.0938723,35.0949086 39.0848,34.9968 C39.0786489,34.9720991 39.0762221,34.9466179 39.0776,34.9212 C39.0782322,34.8946008 39.083093,34.8682716 39.092,34.8432 C39.2228,34.7232 39.6128,34.5384 40.0712,34.524 C40.1768,34.524 40.1912,34.524 40.3016,34.53 C40.7636,34.5612 40.9604,34.8384 40.9604,35.4576 L40.9604,35.7516 C40.9604,35.9916 40.9604,36.2472 40.9532,36.4956 C40.9532,36.708 40.9532,36.9084 40.9532,37.0692 C40.9532,37.0692 40.94,37.2588 41.0168,37.3272 C41.0429142,37.3495734 41.0783711,37.3576522 41.1116,37.3488 L41.138,37.3488 L41.138,37.3764 C41.132,37.4664 41.132,37.5792 41.132,37.6164 L41.132,37.6236 C41.0406977,37.726175 40.9093092,37.783986 40.772,37.782 C40.6155304,37.7634801 40.4731685,37.6825631 40.3772,37.5576 C40.32406,37.6100649 40.2648401,37.6559906 40.2008,37.6944 C40.0455843,37.7600819 39.8767869,37.7872542 39.7088,37.7736 Z M42.554,37.7868 C42.1388,37.7868 41.7872,37.6668 41.714,37.4928 L41.714,37.4832 C41.715816,37.3620304 41.7538471,37.2441758 41.8232,37.1448 L41.8292,37.1364 L41.8652,37.1364 C41.9305456,37.139751 41.9942192,37.1582369 42.0512,37.1904 C42.2048874,37.2561201 42.3700583,37.2907856 42.5372,37.2924 C42.5774793,37.2910829 42.6175976,37.2866699 42.6572,37.2792 C42.8588724,37.2759112 43.0198721,37.1100815 43.0172,36.9084 C43.0172,36.7608 42.9332,36.6348 42.746,36.5016 L42.68,36.4536 C42.524,36.3408 42.3488,36.2136 42.2168,36.1032 L42.0596,35.9664 C41.8767899,35.8080321 41.769905,35.5794292 41.7656,35.3376 C41.7656,34.8372 42.1628,34.5144 42.7784,34.5144 C42.8422114,34.5148601 42.9059332,34.5192685 42.9692,34.5276 C43.3496,34.5528 43.5356,34.7064 43.5692,34.8024 L43.5692,34.8096 C43.5627739,34.9188091 43.5275845,35.0243771 43.4672,35.1156 L43.4588,35.1264 L43.4456,35.1264 L43.358,35.1108 C43.2850042,35.1006318 43.2131004,35.0837606 43.1432,35.0604 C43.043902,35.0212094 42.9379458,35.0016483 42.8312,35.0028 C42.578,35.0028 42.4088,35.1312 42.4088,35.3208 C42.4088,35.4324 42.4664,35.5236 42.6092,35.6364 C42.68,35.6928 42.7772,35.7624 42.8804,35.8356 C43.0172,35.9328 43.1576,36.0336 43.268,36.126 C43.5428,36.3432 43.6604,36.5604 43.6604,36.8532 C43.664,37.4196 43.2284,37.7868 42.554,37.7868 Z M44.6168,39 C44.2868,39 44.1368,38.88 44.1008,38.7696 C44.1073268,38.7074311 44.1210176,38.6462249 44.1416,38.5872 L44.1416,38.5776 L44.1524,38.5776 C44.2193643,38.560475 44.288742,38.554795 44.3576,38.5608 C44.4622553,38.5703861 44.5677196,38.5560233 44.666,38.5188 C44.8208,38.4384 45.026,37.9512 45.1208,37.5408 C45.1108699,37.5334745 45.1026756,37.5240511 45.0968,37.5132 C45.0378518,37.4196071 44.9933516,37.3176613 44.9648,37.2108 C44.9648,37.194 44.468,35.5584 44.1752,34.752 L44.1752,34.7448 L44.1752,34.7376 C44.2256,34.6176 44.3528,34.5744 44.6972,34.5744 C44.7716,34.5744 44.8436,34.8348 44.8484,34.8504 C44.9048,35.0304 45.0884,35.646 45.2204,36.1164 C45.2792,36.3408 45.3344,36.5688 45.374,36.7356 C45.3908,36.8076 45.4064,36.8688 45.4172,36.9132 C45.4664,36.7356 45.56,36.3336 45.6176,36.0852 C45.6776,35.8164 45.7376,35.544 45.806,35.2812 C45.8588,35.0616 45.908,34.854 45.95,34.6692 L45.95,34.662 C46.0328,34.59 46.0916,34.5924 46.3412,34.6056 L46.4468,34.6056 L46.4588,34.6056 L46.4588,34.6164 C46.4816863,34.6618081 46.4936054,34.7119504 46.4936,34.7628 C46.4913216,34.8249096 46.4800026,34.8863554 46.46,34.9452 C46.2956,35.6232 45.9716,36.7776 45.6056,37.7964 C45.2912,38.6028 44.9696,39 44.6168,39 Z M49.6496,37.7928 C49.0328,37.7928 48.3296,37.6128 48.3296,36.2064 C48.3296,35.4456 48.5924,35.0436 48.8096,34.8408 C49.057874,34.6171948 49.3842229,34.5003645 49.718,34.5156 C50.1104,34.5156 50.4056,34.6944 50.438,34.7916 L50.438,34.7976 C50.4336881,34.9127433 50.4037624,35.0254774 50.3504,35.1276 L50.3444,35.1384 L50.3,35.1384 C50.237771,35.1329599 50.1764826,35.1196539 50.1176,35.0988 C49.9961815,35.0451007 49.8651519,35.0165273 49.7324,35.0148 C49.7030699,35.0136891 49.6737048,35.0157004 49.6448,35.0208 C49.2008,35.0568 48.9572,35.466 48.9572,36.174 C48.9572,36.654 49.0412,37.2876 49.7708,37.2876 C49.9612115,37.2870473 50.1493442,37.2461488 50.3228,37.1676 L50.3444,37.1568 L50.3516,37.1808 C50.3724584,37.2417433 50.3857578,37.3050164 50.3912,37.3692 C50.3790951,37.4781302 50.3242897,37.5778156 50.2388,37.6464 C50.0599413,37.7493047 49.8558223,37.8000227 49.6496,37.7928 Z M52.8344,37.7232 L52.82,37.7232 L52.82,37.71 C52.7843256,37.611264 52.7684237,37.5064744 52.7732,37.4016 L52.7732,35.8224 C52.7766801,35.7301919 52.772264,35.6378551 52.76,35.5464 C52.7384,35.1012 52.544,35.0412 52.3568,35.0412 C52.1227787,35.0535924 51.902063,35.1538788 51.7388,35.322 L51.7388,37.296 C51.7465328,37.4163533 51.7229679,37.5366582 51.6704,37.6452 L51.6704,37.6512 C51.5804,37.7208 51.4976,37.7208 51.1484,37.7208 L51.1268,37.7208 L51.1268,37.6992 C51.134,37.3068 51.14,36.8712 51.14,36.3432 L51.14,33.852 C51.14,33.576 51.134,33.3876 51.1268,33.24 C51.2096,33.0876 51.38,33.06 51.6668,33.06 L51.6788,33.06 L51.6788,33.0708 C51.722,33.15 51.734,33.2448 51.734,33.5112 L51.734,34.8456 C51.8467944,34.7447044 51.9758055,34.6635654 52.1156,34.6056 C52.2534184,34.5525528 52.3999267,34.5256929 52.5476,34.5264 C53.1656,34.5264 53.3876,34.8528 53.3876,35.7732 L53.3876,36.7332 C53.3876,37.086 53.3876,37.392 53.3936,37.6332 L53.3936,37.6428 L53.3876,37.6488 C53.312,37.7088 53.2304,37.7232 52.8344,37.7232 Z M55.3988,37.7868 C55.0016,37.7868 54.7148,37.6848 54.4964,37.4676 C54.266,37.2276 54.1448,36.8148 54.1448,36.2676 C54.1448,34.8216 54.8372,34.518 55.418,34.518 C55.9784,34.518 56.3216,34.8516 56.3852,35.4564 C56.3924,35.5608 56.3984,35.6628 56.3984,35.772 C56.4001619,35.9030868 56.386875,36.0339428 56.3588,36.162 L56.3588,36.1632 C56.21464,36.2444231 56.0561275,36.2969889 55.892,36.318 C55.6093556,36.3469919 55.3253154,36.3602124 55.0412,36.3576 C54.9428,36.3576 54.8636,36.3576 54.7688,36.3576 C54.7832,37.1652 55.202,37.26 55.5176,37.26 C55.7666552,37.26966 56.0141698,37.2168569 56.2376,37.1064 L56.2592,37.0944 L56.2676,37.1184 C56.2887807,37.2058292 56.3020343,37.2949902 56.3072,37.3848 C56.3,37.5336 56.0972,37.674 55.9124,37.7196 C55.7446385,37.7631574 55.5721205,37.7857298 55.3988,37.7868 Z M58.3088,37.7928 C57.692,37.7928 56.9888,37.6128 56.9888,36.2064 C56.9888,35.4456 57.2516,35.0436 57.4688,34.8408 C57.717074,34.6171948 58.0434229,34.5003645 58.3772,34.5156 C58.7696,34.5156 59.0648,34.6944 59.0972,34.7916 L59.0972,34.7976 C59.0928881,34.9127433 59.0629624,35.0254774 59.0096,35.1276 L59.0036,35.1384 L58.9592,35.1384 C58.896971,35.1329599 58.8356826,35.1196539 58.7768,35.0988 C58.6553815,35.0451007 58.5243519,35.0165273 58.3916,35.0148 C58.3622699,35.0136891 58.3329048,35.0157004 58.304,35.0208 C57.86,35.0568 57.6164,35.466 57.6164,36.174 C57.6164,36.654 57.7004,37.2876 58.43,37.2876 C58.6204115,37.2870473 58.8085442,37.2461488 58.982,37.1676 L59.0036,37.1568 L59.0108,37.1808 C59.0316818,37.2417369 59.0449818,37.3050128 59.0504,37.3692 C59.0382951,37.4781302 58.9834897,37.5778156 58.898,37.6464 C58.7191413,37.7493047 58.5150223,37.8000227 58.3088,37.7928 Z M63.7052,37.7928 C62.8436,37.7928 62.4248,37.2612 62.4248,36.1668 C62.4248,35.1168 62.8988,34.5156 63.7244,34.5156 C64.55,34.5156 64.9844,35.058 64.9844,36.1284 C64.9856,37.1556 64.4912,37.7928 63.7052,37.7928 Z M66.6812,37.7808 C65.9072,37.7472 65.7536,37.3584 65.7404,36.6516 L65.8052,35.2872 C65.807346,35.0946763 65.7769169,34.903176 65.7152,34.7208 L65.7152,34.71 L65.7224,34.7004 C65.8147133,34.6194028 65.9207882,34.5555953 66.0356,34.512 C66.0555363,34.5064938 66.0761174,34.503669 66.0968,34.5036 C66.2288005,34.511326 66.3363876,34.6123467 66.3524,34.7436 C66.4073791,34.9493013 66.4316414,35.1620013 66.4244,35.3748 L66.3596,36.5688 C66.3596,37.1448 66.5336,37.2576 66.8396,37.2576 C67.0464561,37.2698134 67.2483879,37.191406 67.3928,37.0428 L67.3928,34.974 C67.3823392,34.8625702 67.408911,34.7508002 67.4684,34.656 C67.544,34.5924 67.6148,34.5924 67.88,34.5876 L68,34.5876 L68,34.6032 C67.994,34.9512 67.9868,35.3748 67.9868,35.8752 L67.9868,36.984 C67.9841977,37.1472554 68.0101899,37.3097065 68.0636,37.464 L68.0636,37.4748 L68.0564,37.4844 C67.9772834,37.552667 67.8861234,37.6055723 67.7876,37.6404 C67.7701741,37.6461076 67.7519363,37.6489446 67.7336,37.6488 C67.6281438,37.6486103 67.5380614,37.5726981 67.52,37.4688 C67.3922794,37.5751169 67.2457441,37.6565254 67.088,37.7088 C66.9573879,37.7554079 66.8198749,37.7797465 66.6812,37.7808 L66.6812,37.7808 Z M69.8588,37.7928 C69.362,37.7928 69.1208,37.4328 69.1208,36.6756 L69.1208,35.0832 C68.9909226,35.0901203 68.8611901,35.0671298 68.7416,35.016 L68.7296,35.016 L68.7296,35.0028 C68.7296,34.8324 68.7296,34.8156 68.7764,34.7772 L68.7944,34.7604 C68.8719776,34.7086784 68.9594052,34.6735439 69.0512,34.6572 C69.0951539,34.6470975 69.1384373,34.6342727 69.1808,34.6188 L69.2144,34.0392 C69.254,33.9264 69.374,33.786 69.722,33.7644 L69.7448,33.7644 L69.7448,33.858 C69.7448,34.1196 69.734,34.3668 69.7328,34.6068 L70.5728,34.6068 L70.5728,34.6296 C70.5536,34.9452 70.5164,35.0424 70.406,35.0664 C70.352729,35.0741602 70.2990234,35.0785689 70.2452,35.0796 C70.0808,35.0856 69.9956,35.0856 69.7304,35.0856 C69.7244,35.3616 69.7172,35.6724 69.7172,35.952 C69.7172,36.1056 69.7172,36.2472 69.7172,36.384 C69.7172,36.504 69.7172,36.6084 69.7172,36.7092 C69.7448,37.0872 69.806,37.3092 70.0424,37.3092 C70.193981,37.2976716 70.3418995,37.2569227 70.478,37.1892 L70.5068,37.164 L70.5128,37.2012 C70.5211686,37.2495605 70.5255832,37.2985225 70.526,37.3476 C70.5269028,37.4092844 70.5244993,37.4709728 70.5188,37.5324 C70.5025175,37.592074 70.4649542,37.6437236 70.4132,37.6776 C70.2409957,37.7619163 70.0503392,37.8015332 69.8588,37.7928 L69.8588,37.7928 Z M59.9792,37.7928 L59.7764,37.7928 L59.7764,37.7712 C59.7836,37.5312 59.7908,36.6564 59.7908,36.3888 L59.7908,33.8688 C59.7908,33.588 59.7848,33.3984 59.7776,33.2484 C59.8604,33.0948 60.0308,33.066 60.3176,33.066 L60.3296,33.066 L60.3296,33.0768 C60.3728,33.156 60.3848,33.252 60.3848,33.5232 L60.4124,35.6832 L60.482,35.61 C60.5864,35.4996 60.722,35.3616 60.7664,35.3028 C60.9246035,35.1059099 61.0932454,34.9176399 61.2716,34.7388 C61.3697411,34.6450243 61.5036073,34.5982148 61.6388,34.6104 L61.9712,34.6104 C62.0228,34.6164 62.042,34.6392 62.048,34.6572 C62.054,34.6752 62.048,34.7316 62.0012,34.7772 C61.7096,35.124 61.088,35.844 60.8084,36.1488 L62.1524,37.638 C62.1956,37.6884 62.2124,37.7304 62.1992,37.758 C62.186,37.7856 62.174,37.7976 62.1248,37.8048 L61.7756,37.8048 C61.6488335,37.816608 61.5231809,37.7728267 61.4312,37.6848 C61.2532954,37.5013491 61.0846845,37.3091086 60.926,37.1088 C60.8768,37.05 60.7472,36.912 60.6428,36.8016 L60.4988,36.6432 C60.4856,36.6288 60.4496,36.5976 60.4184,36.57 L60.4184,37.5468 C60.4184,37.632 60.4184,37.6932 60.3764,37.734 C60.3344,37.7748 60.23,37.7928 59.9792,37.7928 Z M65.4284,29.6568 L65.4284,29.6628 C66.8096,29.6628 67.9292,28.08 67.9292,26.1348 C67.9292,24.1896 66.8096,22.6128 65.4284,22.6128 C64.0472,22.6128 62.9276,24.1896 62.9276,26.1348 C62.9276,28.08 64.0472,29.6568 65.4284,29.6568 Z M36.716,35.9124 L36.9416,35.9124 C37.22,35.9124 37.4732,35.9052 37.5848,35.8932 C37.6313249,35.8915624 37.6770395,35.8805419 37.7192,35.8608 C37.7393067,35.7955248 37.7490254,35.7274941 37.748,35.6592 C37.748,35.6328 37.748,35.6076 37.748,35.5836 C37.748,35.5596 37.748,35.538 37.748,35.5152 C37.7156,35.1552 37.5728,34.9824 37.2992,34.9824 C37.2821088,34.9796637 37.2646912,34.9796637 37.2476,34.9824 C36.8912,35.04 36.7424,35.4948 36.7172,35.9112 L36.716,35.9124 Z M40.2632,36.2472 C40.1918217,36.2479606 40.1205288,36.2523663 40.0496,36.2604 C39.662,36.3252 39.488,36.5004 39.488,36.84 C39.488,37.1268 39.5912,37.2672 39.8144,37.2816 L39.8588,37.2816 C40.0374691,37.2813545 40.2092496,37.2126423 40.3388,37.0896 C40.3461374,37.0619757 40.3517482,37.0339214 40.3556,37.0056 C40.3677069,36.902873 40.3721192,36.7993847 40.3688,36.696 L40.3688,36.2508 C40.3336864,36.2477678 40.2984386,36.2465661 40.2632,36.2472 Z M54.7712,35.9112 L54.9968,35.9112 C55.2752,35.9112 55.5284,35.904 55.64,35.892 C55.6865249,35.8903624 55.7322395,35.8793419 55.7744,35.8596 C55.7945067,35.7943248 55.8042254,35.7262941 55.8032,35.658 C55.8032,35.6316 55.8032,35.6064 55.8032,35.5824 C55.8032,35.5584 55.8032,35.5368 55.8032,35.514 C55.7708,35.154 55.628,34.9812 55.3544,34.9812 C55.3373088,34.9784637 55.3198912,34.9784637 55.3028,34.9812 C54.9512,35.04 54.8012,35.4948 54.7712,35.9112 Z M63.7052,34.9944 C63.5156,34.9944 63.074,35.106 63.074,36.1404 C63.074,36.9276 63.2912,37.326 63.7184,37.326 C64.1216,37.326 64.3436,36.9072 64.3436,36.1464 C64.3436,35.3856 64.1396,34.9932 63.7184,34.9932 L63.7052,34.9944 Z" id="Combined-Shape"></path>
            </g>
        </g>
    </g>
</svg>