<svg xmlns="http://www.w3.org/2000/svg" width="31" height="24" viewBox="0 0 31 24">
    <g fill="none" fill-rule="nonzero">
        <path fill="#231F20" d="M5.5 23.413v-1.55a.918.918 0 0 0-.852-.986h-.119a.954.954 0 0 0-.868.437.908.908 0 0 0-.816-.437.816.816 0 0 0-.723.365v-.306h-.523v2.467h.542v-1.359a.579.579 0 0 1 .606-.657c.355 0 .536.233.536.657v1.375h.542v-1.368a.582.582 0 0 1 .5-.658h.106c.365 0 .542.234.542.658v1.375l.527-.013zm8.022-2.467h-.882v-.75h-.542v.75h-.49v.49h.5v1.135c0 .572.223.914.858.914a1.26 1.26 0 0 0 .658-.19l-.155-.461a.987.987 0 0 1-.473.138c-.257 0-.356-.165-.356-.414v-1.125h.879l.003-.487zm4.579-.063a.727.727 0 0 0-.658.362v-.3h-.533v2.468h.536v-1.385c0-.408.174-.635.516-.635.113 0 .225.02.33.063l.164-.517a1.148 1.148 0 0 0-.382-.066l.027.01zm-6.924.257a1.845 1.845 0 0 0-1.007-.257c-.625 0-1.033.3-1.033.79 0 .401.3.658.852.727l.257.036c.293.043.434.118.434.256 0 .191-.197.3-.562.3a1.316 1.316 0 0 1-.823-.257l-.256.418c.312.221.686.337 1.069.329.714 0 1.125-.33 1.125-.806 0-.477-.33-.658-.862-.737l-.257-.036c-.233-.03-.417-.079-.417-.243 0-.165.174-.29.47-.29.271.003.537.076.773.21l.237-.44zm14.384-.257a.727.727 0 0 0-.658.362v-.3h-.533v2.468h.536v-1.385c0-.408.174-.635.516-.635.113 0 .225.02.33.063l.164-.517a1.148 1.148 0 0 0-.382-.066l.027.01zm-6.908 1.29a1.247 1.247 0 0 0 1.2 1.292h.116c.322.017.639-.087.888-.292l-.257-.435c-.188.145-.42.224-.657.224a.793.793 0 0 1 0-1.579c.237 0 .469.08.657.224l.257-.434a1.29 1.29 0 0 0-.888-.293 1.247 1.247 0 0 0-1.316 1.174V22.173zm5.03 0v-1.23h-.537v.299a.937.937 0 0 0-.773-.362 1.291 1.291 0 1 0 0 2.582c.301.01.589-.124.773-.362v.3h.536v-1.227zm-2 0a.74.74 0 1 1 0 .059.106.106 0 0 1-.02-.06h.02zm-6.48-1.29a1.293 1.293 0 0 0 .036 2.582 1.5 1.5 0 0 0 1.026-.329l-.256-.398a1.174 1.174 0 0 1-.717.257.684.684 0 0 1-.737-.605h1.832v-.207c0-.773-.48-1.29-1.171-1.29l-.013-.01zm0 .48a.612.612 0 0 1 .625.6h-1.303a.635.635 0 0 1 .658-.6h.02zm13.453.816v-2.227h-.517v1.29a.937.937 0 0 0-.773-.362 1.291 1.291 0 1 0 0 2.582c.301.01.589-.124.773-.362v.3h.517v-1.22zm.894.875c.101-.003.194.056.234.148a.24.24 0 0 1-.135.32.257.257 0 0 1-.332-.132.243.243 0 0 1 .24-.34l-.007.004zm0 .438c.025.005.051.005.076 0a.187.187 0 0 0 0-.342.187.187 0 0 0-.076 0 .194.194 0 0 0-.075 0 .187.187 0 0 0-.063.042.187.187 0 0 0 .145.33l-.007-.03zm0-.306a.102.102 0 0 1 .066.02.066.066 0 0 1 .023.052.062.062 0 0 1-.016.046.089.089 0 0 1-.053.023l.076.086h-.06l-.068-.086h-.024v.086h-.049v-.227h.105zm-.056.043v.069h.09a.026.026 0 0 0 0-.023.026.026 0 0 0 0-.023h-.027l-.063-.023zm-2.838-1.05a.74.74 0 1 1 0 .06.536.536 0 0 0 .003-.06h-.003zm-18.134 0v-1.233h-.536v.3a.937.937 0 0 0-.773-.363 1.291 1.291 0 0 0 0 2.582c.301.01.589-.124.773-.361v.299h.536v-1.224zm-2 0a.69.69 0 1 1 0 .063v-.063z"/>
        <path fill="#F26122" d="M10.996 2.135h8.134v14.617h-8.134z"/>
        <path fill="#EA1D25" d="M11.516 9.447a9.279 9.279 0 0 1 3.549-7.309 9.295 9.295 0 1 0 0 14.617 9.279 9.279 0 0 1-3.55-7.308z"/>
        <path fill="#F69E1E" d="M30.103 9.447a9.295 9.295 0 0 1-15.038 7.305 9.295 9.295 0 0 0 0-14.617A9.295 9.295 0 0 1 30.103 9.44v.007zM29.228 15.358v-.428h.122v-.089h-.306v.09h.131v.427h.053zm.595 0v-.517h-.092l-.108.367-.109-.367h-.082v.517h.066v-.385l.102.333h.069l.102-.333v.39l.052-.005z"/>
    </g>
</svg>
