<svg xmlns="http://www.w3.org/2000/svg" width="63" height="22" viewBox="0 0 63 22">
    <g fill="none" fill-rule="evenodd">
        <path fill="#D5D5D9" d="M14.968 8.698h-2.392V6.893c0-2.496-2.053-4.527-4.576-4.527-2.523 0-4.575 2.031-4.575 4.527v1.805H1.032V6.893C1.032 3.093 4.158 0 8 0s6.968 3.092 6.968 6.893v1.805z"/>
        <path fill="#49B372" d="M8 22c-4.418 0-8-3.484-8-7.782V9.506a.82.82 0 0 1 .83-.808h14.34a.82.82 0 0 1 .83.808v4.712C16 18.516 12.418 22 8 22"/>
        <path fill="#FFF" d="M7.415 18.419l-3.802-3.572 1.622-1.523 2.18 2.048 4.383-4.116 1.621 1.523z"/>
        <path fill="#4A4A4A" d="M20.327 6.463c0-.294.044-.557.131-.79a1.73 1.73 0 0 1 .361-.591c.153-.161.334-.284.542-.369a1.773 1.773 0 0 1 1.017-.088 1.46 1.46 0 0 1 .722.418l-.35.396a1.243 1.243 0 0 0-.298-.214.906.906 0 0 0-.413-.082.956.956 0 0 0-.769.35 1.198 1.198 0 0 0-.216.409 1.8 1.8 0 0 0-.076.544c0 .41.092.732.276.965.184.233.457.35.818.35a.999.999 0 0 0 .29-.042.594.594 0 0 0 .224-.118v-.776h-.678v-.522h1.247v1.584a1.51 1.51 0 0 1-.487.305c-.2.083-.425.124-.673.124-.237 0-.457-.04-.662-.121-.204-.08-.38-.2-.53-.357a1.655 1.655 0 0 1-.35-.583 2.312 2.312 0 0 1-.126-.792zm3.605-1.81h.635v2.068c0 .194.017.358.052.492a.862.862 0 0 0 .147.322c.064.08.14.138.227.173a.793.793 0 0 0 .296.053c.11 0 .21-.018.3-.053a.556.556 0 0 0 .236-.173.865.865 0 0 0 .153-.322 1.9 1.9 0 0 0 .055-.492V4.653h.607v2.019c0 .297-.031.549-.093.756a1.312 1.312 0 0 1-.27.508c-.12.133-.262.229-.428.29-.166.06-.352.09-.56.09-.208 0-.395-.03-.561-.09a1.048 1.048 0 0 1-.427-.29 1.34 1.34 0 0 1-.273-.508 2.594 2.594 0 0 1-.096-.756V4.652zm.842-.297a.314.314 0 0 1-.232-.09.317.317 0 0 1-.09-.234c0-.096.03-.175.09-.237a.309.309 0 0 1 .232-.094.318.318 0 0 1 .329.33.312.312 0 0 1-.329.325zm1.018 0a.312.312 0 0 1-.328-.324.321.321 0 0 1 .328-.33c.095 0 .172.03.232.093.06.062.09.141.09.237 0 .095-.03.173-.09.233a.314.314 0 0 1-.232.091zm1.264.297h.673l.503 1.81c.058.205.11.4.156.582.045.184.1.38.161.589h.022c.062-.209.116-.405.161-.589.046-.183.096-.377.15-.582l.499-1.81h.65l-1.11 3.597h-.75l-1.115-3.597zm3.408 0h2.155v.539H31.1v.918h1.285v.54h-1.286V7.71h1.576v.539h-2.21V4.653zm2.943 0h.651l1.116 2.024.367.764h.021a39.422 39.422 0 0 0-.051-.602 6.707 6.707 0 0 1-.03-.624V4.653h.607V8.25h-.651L34.32 6.226l-.367-.764h-.022c.015.19.032.39.052.599.02.209.03.414.03.616V8.25h-.607V4.653zm3.589 0h.634v3.058h1.488v.539h-2.122V4.653zm2.746 0h.635V8.25h-.635V4.653zm.317-.291a.394.394 0 0 1-.279-.102.34.34 0 0 1-.11-.261c0-.107.037-.193.11-.259a.4.4 0 0 1 .28-.099.4.4 0 0 1 .278.099c.073.066.11.152.11.258a.34.34 0 0 1-.11.262.394.394 0 0 1-.279.102zm3.737 3.954c-.234 0-.447-.043-.64-.13a1.386 1.386 0 0 1-.498-.373 1.754 1.754 0 0 1-.323-.591 2.494 2.494 0 0 1-.115-.787c0-.29.038-.55.115-.778.077-.23.184-.423.323-.58a1.4 1.4 0 0 1 .498-.364c.193-.084.406-.126.64-.126.233 0 .446.042.64.127.193.084.36.205.5.362.14.158.25.352.326.58.076.23.115.49.115.779 0 .293-.039.555-.115.787a1.728 1.728 0 0 1-.326.59c-.14.164-.307.289-.5.375-.194.086-.407.129-.64.129zm0-.556a.78.78 0 0 0 .383-.093.854.854 0 0 0 .29-.267c.08-.115.142-.255.186-.418.043-.163.065-.345.065-.547 0-.403-.083-.72-.249-.949a.79.79 0 0 0-.675-.343.79.79 0 0 0-.676.343c-.166.23-.249.546-.249.949 0 .202.022.384.066.547.044.163.106.303.186.418a.78.78 0 0 0 .673.36zm-.51-3.404a.314.314 0 0 1-.232-.09.317.317 0 0 1-.09-.234c0-.096.03-.175.09-.237a.309.309 0 0 1 .233-.094.318.318 0 0 1 .328.33.312.312 0 0 1-.328.325zm1.018 0a.312.312 0 0 1-.328-.324.321.321 0 0 1 .328-.33c.095 0 .173.03.233.093.06.062.09.141.09.237 0 .095-.03.173-.09.233a.314.314 0 0 1-.233.091zm1.79.297h.957c.547 0 .973.148 1.28.446.306.297.46.742.46 1.336 0 .297-.04.56-.118.787a1.51 1.51 0 0 1-.34.569 1.415 1.415 0 0 1-.536.343c-.21.078-.447.116-.713.116h-.99V4.653zm.913 3.08c.365 0 .645-.105.84-.316.195-.211.292-.538.292-.982 0-.44-.098-.76-.295-.962-.197-.202-.476-.303-.837-.303h-.28v2.563h.28zm2.505-3.08h2.156v.539h-1.52v.918h1.285v.54h-1.286V7.71h1.576v.539h-2.21V4.653zm2.944 0h.7l.645 1.771.236.682h.022l.23-.682.634-1.771h.7V8.25h-.596V6.606c0-.085.003-.176.008-.276.006-.099.012-.198.02-.3.006-.1.016-.2.027-.296.01-.097.02-.188.027-.272h-.022l-.29.819-.618 1.634h-.296l-.618-1.634-.284-.82h-.022a37.666 37.666 0 0 0 .052.57c.009.1.016.2.022.3.005.099.008.19.008.274V8.25h-.585V4.653zm4.075 0h2.156v.539h-1.521v.918h1.285v.54h-1.285V7.71h1.575v.539h-2.21V4.653zM20.37 16.864c.362-.352.689-.677.981-.974.293-.297.542-.572.747-.825a3.93 3.93 0 0 0 .472-.71c.11-.22.164-.428.164-.626 0-.28-.074-.502-.222-.664-.147-.162-.36-.244-.64-.244a.952.952 0 0 0-.554.174 2.616 2.616 0 0 0-.463.412l-.525-.528c.24-.258.488-.458.742-.598.255-.14.562-.21.923-.21.252 0 .48.038.681.115.203.077.375.186.517.326.143.14.253.31.333.507a1.802 1.802 0 0 1-.033 1.365c-.101.24-.238.482-.41.727a8.57 8.57 0 0 1-.603.755c-.23.258-.474.525-.73.8l.442-.037c.159-.014.301-.02.427-.02h1.28v.808h-3.528v-.553zm4.986-.685c.159.149.337.28.534.392.197.113.426.17.689.17.295 0 .537-.089.726-.265.189-.176.283-.423.283-.742 0-.314-.087-.556-.262-.726-.175-.17-.408-.256-.698-.256-.17 0-.312.023-.427.07a2.473 2.473 0 0 0-.41.227l-.451-.289.156-2.59h2.79v.8h-1.97l-.106 1.27c.109-.055.217-.097.324-.127a1.34 1.34 0 0 1 .365-.046c.224 0 .436.033.636.1.2.065.373.166.52.3.149.135.266.306.354.512.087.206.131.45.131.73 0 .286-.05.542-.152.767a1.695 1.695 0 0 1-.993.92c-.221.08-.452.12-.693.12-.421 0-.776-.073-1.063-.219a2.77 2.77 0 0 1-.718-.507l.435-.61zm6.274.61a.71.71 0 0 0 .554-.255c.15-.17.226-.418.226-.743 0-.313-.072-.547-.214-.7-.142-.155-.344-.232-.607-.232a.97.97 0 0 0-.468.136c-.164.091-.32.246-.467.466.049.468.16.806.332 1.015a.802.802 0 0 0 .644.314zm1.059-3.547a1.065 1.065 0 0 0-.366-.284 1.036 1.036 0 0 0-.463-.112c-.164 0-.319.033-.464.1a.97.97 0 0 0-.381.325c-.11.151-.199.35-.267.598a3.94 3.94 0 0 0-.12.916c.154-.193.333-.344.538-.454.206-.11.404-.165.595-.165.225 0 .431.033.62.1.189.065.35.166.484.3.134.135.238.304.312.508.074.203.11.442.11.717 0 .264-.043.502-.13.714a1.574 1.574 0 0 1-.874.887c-.2.082-.412.124-.637.124-.257 0-.5-.051-.73-.153a1.636 1.636 0 0 1-.603-.466 2.338 2.338 0 0 1-.41-.8 3.867 3.867 0 0 1-.152-1.147c0-.512.057-.949.172-1.312.115-.363.267-.66.456-.89.188-.232.406-.402.652-.512a1.87 1.87 0 0 1 .771-.165c.318 0 .59.057.817.173.227.115.42.256.578.42l-.508.578zm1.965-1.65h.944v1.502l-.025.676c.17-.148.355-.27.554-.363a1.513 1.513 0 0 1 1.284.004c.197.097.364.234.501.413a1.9 1.9 0 0 1 .312.647c.071.253.107.537.107.85 0 .347-.048.656-.144.928a2.16 2.16 0 0 1-.382.69c-.158.186-.341.33-.55.428a1.49 1.49 0 0 1-.648.149c-.186 0-.373-.044-.562-.132a1.963 1.963 0 0 1-.537-.38h-.025l-.082.413h-.747v-5.825zm.944 4.802c.142.126.283.214.423.264.14.05.27.074.39.074.267 0 .492-.117.672-.35.18-.234.271-.582.271-1.044 0-.407-.068-.724-.205-.95-.137-.225-.358-.337-.665-.337-.284 0-.58.15-.886.453v1.89zm4.616-3.738a.6.6 0 0 1-.418-.148.498.498 0 0 1-.164-.388c0-.16.054-.29.164-.392a.59.59 0 0 1 .418-.152c.17 0 .31.05.419.152.11.102.164.233.164.392 0 .16-.055.289-.164.388a.6.6 0 0 1-.419.148zm-.476.71h.944v4.05h-.944v-4.05zm2.746.75h-.575v-.709l.624-.041.115-1.106h.788v1.106h1.025v.75h-1.025v1.931c0 .473.188.71.566.71a1.016 1.016 0 0 0 .418-.09l.164.7c-.109.039-.233.073-.373.103-.14.03-.289.046-.447.046-.235 0-.434-.036-.595-.108a1.01 1.01 0 0 1-.394-.3 1.25 1.25 0 0 1-.222-.463 2.377 2.377 0 0 1-.07-.598v-1.93zm5.687 1.956c.192.181.41.329.657.441.246.113.492.17.738.17.307 0 .54-.064.698-.19a.612.612 0 0 0 .238-.504.59.59 0 0 0-.062-.28.634.634 0 0 0-.172-.202 1.483 1.483 0 0 0-.263-.161 5.648 5.648 0 0 0-.332-.149l-.739-.321a2.537 2.537 0 0 1-.39-.207 1.71 1.71 0 0 1-.348-.297 1.376 1.376 0 0 1-.25-.404 1.387 1.387 0 0 1-.095-.528c0-.214.045-.414.136-.598.09-.184.214-.345.373-.483.159-.137.349-.244.57-.321.222-.077.464-.116.727-.116.311 0 .612.062.902.186.29.124.539.29.747.499l-.484.61a2.389 2.389 0 0 0-.542-.338 1.522 1.522 0 0 0-.623-.124c-.258 0-.463.057-.616.17a.547.547 0 0 0-.23.466c0 .104.024.194.07.268.047.074.11.14.189.198.08.058.17.11.275.157.104.046.21.092.32.136l.73.305c.159.066.304.143.435.23.131.089.245.19.34.306.096.116.171.249.226.4.055.152.082.326.082.524a1.477 1.477 0 0 1-.513 1.126 1.87 1.87 0 0 1-.607.347 2.387 2.387 0 0 1-.808.128 2.74 2.74 0 0 1-1.046-.207 2.729 2.729 0 0 1-.89-.585l.557-.652zm4.797 0c.192.181.41.329.657.441.246.113.492.17.738.17.306 0 .539-.064.698-.19a.612.612 0 0 0 .238-.504.59.59 0 0 0-.062-.28.634.634 0 0 0-.172-.202 1.483 1.483 0 0 0-.263-.161 5.648 5.648 0 0 0-.332-.149l-.739-.321a2.537 2.537 0 0 1-.39-.207 1.71 1.71 0 0 1-.348-.297 1.376 1.376 0 0 1-.25-.404 1.387 1.387 0 0 1-.095-.528c0-.214.045-.414.135-.598.09-.184.215-.345.374-.483.158-.137.349-.244.57-.321.222-.077.464-.116.726-.116.312 0 .613.062.903.186.29.124.539.29.747.499l-.484.61a2.389 2.389 0 0 0-.542-.338 1.522 1.522 0 0 0-.624-.124c-.257 0-.462.057-.615.17a.547.547 0 0 0-.23.466c0 .104.023.194.07.268.046.074.11.14.189.198.079.058.17.11.275.157.103.046.21.092.32.136l.73.305c.159.066.303.143.435.23.131.089.245.19.34.306.096.116.171.249.226.4.055.152.082.326.082.524a1.477 1.477 0 0 1-.513 1.126 1.87 1.87 0 0 1-.607.347 2.387 2.387 0 0 1-.808.128 2.74 2.74 0 0 1-1.047-.207 2.729 2.729 0 0 1-.89-.585l.558-.652zm4.74-4.05h.951v4.586h2.232v.809h-3.184V12.02z"/>
    </g>
</svg>
