<svg xmlns="http://www.w3.org/2000/svg" width="49" height="16" viewBox="0 0 49 16">
    <defs>
        <linearGradient id="a" x1="-.05%" x2="100.011%" y1="48.801%" y2="48.801%">
            <stop offset="0%" stop-color="#27255E"/>
            <stop offset="20%" stop-color="#26265F"/>
            <stop offset="41%" stop-color="#292D6E"/>
            <stop offset="60%" stop-color="#2B337C"/>
            <stop offset="80%" stop-color="#2A3586"/>
            <stop offset="100%" stop-color="#293890"/>
        </linearGradient>
    </defs>
    <path fill="url(#a)" fill-rule="nonzero" d="M31.91 0c-3.479 0-6.587 1.805-6.587 5.134 0 3.826 5.512 4.084 5.512 6.004 0 .806-.924 1.53-2.509 1.53a8.328 8.328 0 0 1-3.922-1.01l-.717 3.36c1.432.565 2.959.855 4.499.854 3.804 0 6.794-1.89 6.794-5.28 0-4.036-5.535-4.291-5.535-6.074 0-.637.76-1.326 2.337-1.326a7.946 7.946 0 0 1 3.233.736l.702-3.245A10.522 10.522 0 0 0 31.91 0zM.083.246L0 .736c.95.185 1.883.452 2.787.801 1.696.612 1.817.957 2.104 2.076L8.006 15.62h4.177L18.614.243H14.44l-4.145 10.455-1.673-8.861A1.824 1.824 0 0 0 6.708.243L.083.246zm20.199 0l-3.268 15.378h3.972L24.242.246h-3.96zm22.156 0c-.956 0-1.467.513-1.836 1.41l-5.82 13.968h4.168l.807-2.328h5.076l.49 2.328H49L45.786.246h-3.348zm.542 4.145l1.234 5.77h-3.306l2.072-5.77z"/>
</svg>
